<svg width="67" height="24" viewBox="0 0 67 24" fill="none" xmlns="http://www.w3.org/2000/svg">
<path fill-rule="evenodd" clip-rule="evenodd" d="M20.9659 0V6.15129H14.2028V24H6.76305V6.15129H0V0H20.9659ZM42.4495 0V6.14144L29.5319 6.15129V9.09722H42.4495V14.8271L29.5319 14.8182V17.8489H42.4495V24H22.0923V0H42.4495ZM55.896 0C63.9438 0 66.7844 5.91584 66.7844 11.9665C66.7844 19.3279 62.8623 24 54.4415 24H43.6885V0H55.896ZM53.495 6.15129H51.1281V17.8489H54.0358C58.6689 17.8489 59.3451 14.1177 59.3451 11.8658C59.3451 10.3532 58.8716 6.15129 53.495 6.15129Z" fill="white"/>
</svg>
